<?xml version="1.0" encoding="UTF-8" standalone="no"?>
<!DOCTYPE svg PUBLIC "-//W3C//DTD SVG 1.1//EN" "http://www.w3.org/Graphics/SVG/1.1/DTD/svg11.dtd">
<!-- Generated by Microsoft Visio, SVG Export facebook_button.svg Page-1 -->
<svg xmlns="http://www.w3.org/2000/svg" xmlns:xlink="http://www.w3.org/1999/xlink" xmlns:ev="http://www.w3.org/2001/xml-events"
		xmlns:v="http://schemas.microsoft.com/visio/2003/SVGExtensions/" width="3.16002in" height="0.955299in"
		viewBox="0 0 227.522 68.7815" xml:space="preserve" color-interpolation-filters="sRGB" class="st4">
	<v:documentProperties v:langID="2057" v:metric="true" v:viewMarkup="false"/>

	<style type="text/css">
	<![CDATA[
		.st1 {fill:#3c5a9a;stroke:#3c5a9a;stroke-linecap:round;stroke-linejoin:round;stroke-width:0.75}
		.st2 {fill:#ffffff;font-family:Century Gothic;font-size:1.99999em;font-weight:bold}
		.st3 {fill:#ffffff;stroke:none;stroke-linecap:butt;stroke-width:9.05219}
		.st4 {fill:none;fill-rule:evenodd;font-size:12px;overflow:visible;stroke-linecap:square;stroke-miterlimit:3}
	]]>
	</style>

	<g v:mID="0" v:index="1" v:groupContext="foregroundPage">
		<title>Page-1</title>
		<v:pageProperties v:drawingScale="0.0393701" v:pageScale="0.0393701" v:drawingUnits="24" v:shadowOffsetX="8.50394"
				v:shadowOffsetY="-8.50394"/>
		<g id="group1-1" transform="translate(0.375,-0.375)" v:mID="1" v:groupContext="group">
			<title>Sheet.1</title>
			<g id="shape2-2" v:mID="2" v:groupContext="shape">
				<title>Sheet.2</title>
				<desc>Facebook</desc>
				<v:textBlock v:margins="rect(4,4,4,4)" v:tabSpace="42.5197"/>
				<v:textRect cx="113.386" cy="34.7658" width="226.78" height="68.0315"/>
				<rect x="0" y="0.750003" width="226.772" height="68.0315" rx="11.3386" ry="11.3386" class="st1"/>
				<text x="71.1" y="41.97" class="st2" v:langID="2057"><v:paragraph v:indentLeft="34.02" v:horizAlign="1"/><v:tabList/>Facebook</text>			</g>
			<g id="group3-5" transform="translate(22.937,-12.3643)" v:mID="3" v:groupContext="group">
				<title>Sheet.3</title>
				<g id="shape4-6" v:mID="4" v:groupContext="shape">
					<title>Sheet.4</title>
					<path d="M14.6 68.78 L14.6 49.03 L21.23 49.03 L22.22 41.33 L14.6 41.33 L14.6 36.42 C14.6 34.19 15.22 32.67 18.41
								 32.67 L22.49 32.67 L22.49 25.78 C21.78 25.69 19.36 25.48 16.55 25.48 C10.67 25.48 6.65 29.07 6.65
								 35.65 L6.65 41.33 L0 41.33 L0 49.03 L6.65 49.03 L6.65 68.78 L14.6 68.78 Z" class="st3"/>
				</g>
			</g>
		</g>
	</g>
</svg>
