<svg xmlns="http://www.w3.org/2000/svg" xmlns:xlink="http://www.w3.org/1999/xlink" width="500" zoomAndPan="magnify" viewBox="0 0 375 374.999991" height="500" preserveAspectRatio="xMidYMid meet" version="1.0"><defs><clipPath id="8bcf7505c6"><path d="M 55 69 L 320 69 L 320 267.429688 L 55 267.429688 Z M 55 69 " clip-rule="nonzero"/></clipPath></defs><rect x="-37.5" width="450" fill="#ffffff" y="-37.499999" height="449.999989" fill-opacity="1"/><rect x="-37.5" width="450" fill="#ffffff" y="-37.499999" height="449.999989" fill-opacity="1"/><rect x="-37.5" width="450" fill="#ffffff" y="-37.499999" height="449.999989" fill-opacity="1"/><path fill="#ffd700" d="M 303.417969 179.339844 L 71.746094 179.339844 L 91.632812 253.75 C 92.90625 258.570312 97.277344 261.921875 102.277344 261.921875 L 272.886719 261.921875 C 277.863281 261.921875 282.238281 258.570312 283.53125 253.75 L 303.417969 179.339844 " fill-opacity="1" fill-rule="nonzero"/><path fill="#0070c0" d="M 303.417969 157.320312 L 71.746094 157.320312 C 65.648438 157.320312 60.714844 162.242188 60.714844 168.328125 C 60.714844 174.414062 65.648438 179.339844 71.746094 179.339844 L 303.417969 179.339844 C 309.515625 179.339844 314.449219 174.414062 314.449219 168.328125 C 314.449219 162.242188 309.515625 157.320312 303.417969 157.320312 " fill-opacity="1" fill-rule="nonzero"/><g clip-path="url(#8bcf7505c6)"><path fill="#000000" d="M 267.433594 201.363281 L 269.632812 184.847656 L 296.242188 184.847656 L 291.824219 201.363281 Z M 284.480469 228.890625 L 263.75 228.890625 L 265.96875 212.375 L 288.875 212.375 Z M 278.207031 252.332031 C 277.5625 254.742188 275.363281 256.417969 272.886719 256.417969 L 260.085938 256.417969 L 262.285156 239.902344 L 281.527344 239.902344 Z M 96.957031 252.332031 L 93.636719 239.902344 L 112.878906 239.902344 L 115.097656 256.417969 L 102.277344 256.417969 C 99.777344 256.417969 97.601562 254.742188 96.957031 252.332031 Z M 86.289062 212.375 L 109.214844 212.375 L 111.414062 228.890625 L 90.6875 228.890625 Z M 78.921875 184.847656 L 105.53125 184.847656 L 107.730469 201.363281 L 83.339844 201.363281 Z M 230.246094 201.363281 L 231.34375 184.847656 L 258.492188 184.847656 L 256.296875 201.363281 Z M 228.414062 228.890625 L 229.511719 212.375 L 254.828125 212.375 L 252.609375 228.890625 Z M 227.679688 239.902344 L 251.144531 239.902344 L 248.949219 256.417969 L 226.582031 256.417969 Z M 193.097656 239.902344 L 216.628906 239.902344 L 215.527344 256.417969 L 193.097656 256.417969 Z M 158.535156 239.902344 L 182.066406 239.902344 L 182.066406 256.417969 L 159.636719 256.417969 Z M 147.484375 239.902344 L 148.582031 256.417969 L 126.214844 256.417969 L 124.019531 239.902344 Z M 145.652344 212.375 L 146.75 228.890625 L 122.554688 228.890625 L 120.335938 212.375 Z M 143.820312 184.847656 L 144.917969 201.363281 L 118.867188 201.363281 L 116.648438 184.847656 Z M 182.066406 201.363281 L 155.972656 201.363281 L 154.875 184.847656 L 182.066406 184.847656 Z M 182.066406 228.890625 L 157.804688 228.890625 L 156.707031 212.375 L 182.066406 212.375 Z M 193.097656 212.375 L 218.457031 212.375 L 217.359375 228.890625 L 193.097656 228.890625 Z M 220.289062 184.847656 L 219.191406 201.363281 L 193.097656 201.363281 L 193.097656 184.847656 Z M 71.746094 162.824219 L 303.417969 162.824219 C 306.457031 162.824219 308.933594 165.296875 308.933594 168.328125 C 308.933594 171.363281 306.457031 173.835938 303.417969 173.835938 L 71.746094 173.835938 C 68.707031 173.835938 66.230469 171.363281 66.230469 168.328125 C 66.230469 165.296875 68.707031 162.824219 71.746094 162.824219 Z M 319.964844 168.328125 C 319.964844 159.210938 312.554688 151.8125 303.417969 151.8125 L 251.578125 151.8125 L 209 72.15625 C 207.554688 69.464844 204.238281 68.433594 201.542969 69.875 C 198.851562 71.316406 197.816406 74.648438 199.261719 77.316406 L 239.058594 151.8125 L 136.105469 151.8125 L 175.902344 77.316406 C 177.324219 74.648438 176.3125 71.316406 173.621094 69.875 C 170.949219 68.433594 167.609375 69.464844 166.164062 72.15625 L 123.585938 151.8125 L 71.746094 151.8125 C 62.609375 151.8125 55.199219 159.210938 55.199219 168.328125 C 55.199219 175.898438 60.347656 182.222656 67.328125 184.179688 L 71.917969 201.363281 L 71.746094 201.363281 C 68.707031 201.363281 66.230469 203.835938 66.230469 206.867188 C 66.230469 209.902344 68.707031 212.375 71.746094 212.375 L 74.871094 212.375 L 79.265625 228.890625 L 77.261719 228.890625 C 74.222656 228.890625 71.746094 231.363281 71.746094 234.394531 C 71.746094 237.429688 74.222656 239.902344 77.261719 239.902344 L 82.21875 239.902344 L 86.289062 255.171875 C 88.230469 262.375 94.800781 267.429688 102.277344 267.429688 L 272.886719 267.429688 C 280.363281 267.429688 286.933594 262.375 288.851562 255.171875 L 292.945312 239.902344 L 297.902344 239.902344 C 300.941406 239.902344 303.417969 237.429688 303.417969 234.394531 C 303.417969 231.363281 300.941406 228.890625 297.902344 228.890625 L 295.898438 228.890625 L 300.292969 212.375 L 303.417969 212.375 C 306.457031 212.375 308.933594 209.902344 308.933594 206.867188 C 308.933594 203.835938 306.457031 201.363281 303.417969 201.363281 L 303.246094 201.363281 L 307.835938 184.179688 C 314.816406 182.222656 319.964844 175.898438 319.964844 168.328125 " fill-opacity="1" fill-rule="nonzero"/></g></svg>